<svg width="1024" height="1024" viewBox="0 0 1024 1024" fill="none" xmlns="http://www.w3.org/2000/svg">
<g clip-path="url(#clip0_1_13)">
<path d="M268.48 606.36C255.68 617.24 244.8 637.72 244.8 669.08C244.8 694.04 251.84 717.72 268.48 727.96V606.36ZM348.48 594.84H332.48V735H348.48V594.84ZM349.76 530.84C358.08 368.92 433.6 223 599.36 223C626.24 223 637.76 246.04 640.96 253.72C649.28 272.28 650.56 293.4 656.32 312.6C690.24 331.8 741.44 369.56 770.88 399C779.2 407.32 785.6 413.72 790.72 424.6C792 427.8 795.2 433.56 795.2 441.88C795.2 455.96 790.08 463 784.96 469.4C771.52 489.88 753.6 505.88 735.04 524.44C722.24 537.24 709.44 549.4 699.84 558.36C697.92 560.28 696 562.2 694.08 563.48V767C694.08 784.92 680 799 662.08 799C644.16 799 630.08 784.92 630.08 767V549.4C630.08 530.84 645.44 522.52 656.32 511.64C675.52 493.72 705.6 463.64 723.52 444.44C723.52 443.8 724.16 443.8 724.16 443.16C715.84 435.48 705.6 425.88 692.8 415.64C665.28 393.88 635.2 373.4 619.2 365.08C608.32 359.32 601.92 349.72 600 345.24C594.24 333.08 591.68 320.28 589.12 306.2C587.84 299.8 585.28 292.12 584.64 287.64C528.32 291.48 488.64 319.64 460.48 363.8C429.12 413.08 412.48 483.48 412.48 562.2V735H456.64C456.64 717.08 449.6 699.16 445.76 684.44C445.12 683.16 445.12 682.52 445.12 681.88C443.2 679.96 442.56 674.2 442.56 671C442.56 655 456 639 475.2 639C488.64 639 500.8 647.32 505.28 660.76V661.4L505.92 662.04C505.92 667.16 508.48 670.36 510.4 677.4C514.88 694.68 521.28 718.36 521.28 742.04C521.28 771.48 505.92 799 475.2 799H296.64C253.76 799 222.4 780.44 203.84 752.28C185.92 726.04 180.8 694.68 180.8 669.08C180.8 590.36 231.36 531.48 296.64 531.48C312.64 531.48 328 530.84 342.08 530.84H349.76ZM628.8 485.4C607.68 485.4 590.4 468.12 590.4 447C590.4 425.88 607.68 408.6 628.8 408.6C649.92 408.6 667.2 425.88 667.2 447C667.2 468.12 649.92 485.4 628.8 485.4ZM564.8 447C564.8 468.12 547.52 485.4 526.4 485.4C505.28 485.4 488 468.12 488 447C488 425.88 505.28 408.6 526.4 408.6C547.52 408.6 564.8 425.88 564.8 447ZM600.64 676.12V767C600.64 784.92 586.56 799 568.64 799C550.72 799 536.64 784.92 536.64 767V676.12C536.64 658.2 550.72 644.12 568.64 644.12C586.56 644.12 600.64 658.2 600.64 676.12Z" fill="black"/>
</g>
<defs>
</defs>
</svg>
